<svg width="183" height="50" viewBox="0 0 183 50" fill="none" xmlns="http://www.w3.org/2000/svg">
<path d="M68.6406 37H65.248V25.1699H52.3457V37H48.9707V11.4062H52.3457V22.4102H65.248V11.4062H68.6406V37ZM94.3223 25.0293C94.3223 27.5371 93.9004 29.7285 93.0566 31.6035C92.2129 33.4668 91.0176 34.8906 89.4707 35.875C87.9238 36.8594 86.1191 37.3516 84.0566 37.3516C82.041 37.3516 80.2539 36.8594 78.6953 35.875C77.1367 34.8789 75.9238 33.4668 75.0566 31.6387C74.2012 29.7988 73.7617 27.6719 73.7383 25.2578V23.4121C73.7383 20.9512 74.166 18.7773 75.0215 16.8906C75.877 15.0039 77.084 13.5625 78.6426 12.5664C80.2129 11.5586 82.0059 11.0547 84.0215 11.0547C86.0723 11.0547 87.877 11.5527 89.4355 12.5488C91.0059 13.5332 92.2129 14.9688 93.0566 16.8555C93.9004 18.7305 94.3223 20.916 94.3223 23.4121V25.0293ZM90.9648 23.377C90.9648 20.3418 90.3555 18.0156 89.1367 16.3984C87.918 14.7695 86.2129 13.9551 84.0215 13.9551C81.8887 13.9551 80.207 14.7695 78.9766 16.3984C77.7578 18.0156 77.1309 20.2656 77.0957 23.1484V25.0293C77.0957 27.9707 77.7109 30.2852 78.9414 31.9727C80.1836 33.6484 81.8887 34.4863 84.0566 34.4863C86.2363 34.4863 87.9238 33.6953 89.1191 32.1133C90.3145 30.5195 90.9297 28.2402 90.9648 25.2754V23.377ZM106.926 25.5918C104.031 24.7598 101.922 23.7402 100.598 22.5332C99.2852 21.3145 98.6289 19.8145 98.6289 18.0332C98.6289 16.0176 99.4316 14.3535 101.037 13.041C102.654 11.7168 104.752 11.0547 107.33 11.0547C109.088 11.0547 110.652 11.3945 112.023 12.0742C113.406 12.7539 114.473 13.6914 115.223 14.8867C115.984 16.082 116.365 17.3887 116.365 18.8066H112.973C112.973 17.2598 112.48 16.0469 111.496 15.168C110.512 14.2773 109.123 13.832 107.33 13.832C105.666 13.832 104.365 14.2012 103.428 14.9395C102.502 15.666 102.039 16.6797 102.039 17.9805C102.039 19.0234 102.479 19.9082 103.357 20.6348C104.248 21.3496 105.754 22.0059 107.875 22.6035C110.008 23.2012 111.672 23.8633 112.867 24.5898C114.074 25.3047 114.965 26.1426 115.539 27.1035C116.125 28.0645 116.418 29.1953 116.418 30.4961C116.418 32.5703 115.609 34.2344 113.992 35.4883C112.375 36.7305 110.213 37.3516 107.506 37.3516C105.748 37.3516 104.107 37.0176 102.584 36.3496C101.061 35.6699 99.8828 34.7441 99.0508 33.5723C98.2305 32.4004 97.8203 31.0703 97.8203 29.582H101.213C101.213 31.1289 101.781 32.3535 102.918 33.2559C104.066 34.1465 105.596 34.5918 107.506 34.5918C109.287 34.5918 110.652 34.2285 111.602 33.502C112.551 32.7754 113.025 31.7852 113.025 30.5312C113.025 29.2773 112.586 28.3105 111.707 27.6309C110.828 26.9395 109.234 26.2598 106.926 25.5918ZM138.443 14.1836H130.217V37H126.859V14.1836H118.65V11.4062H138.443V14.1836ZM151.627 26.6465H145.615V37H142.223V11.4062H150.695C153.578 11.4062 155.793 12.0625 157.34 13.375C158.898 14.6875 159.678 16.5977 159.678 19.1055C159.678 20.6992 159.244 22.0879 158.377 23.2715C157.521 24.4551 156.326 25.3398 154.791 25.9258L160.803 36.7891V37H157.182L151.627 26.6465ZM145.615 23.8867H150.801C152.477 23.8867 153.807 23.4531 154.791 22.5859C155.787 21.7188 156.285 20.5586 156.285 19.1055C156.285 17.5234 155.811 16.3105 154.861 15.4668C153.924 14.623 152.564 14.1953 150.783 14.1836H145.615V23.8867ZM171.385 24.2559L178.064 11.4062H181.896L173.072 27.4551V37H169.697V27.4551L160.873 11.4062H164.74L171.385 24.2559Z" fill="white"/>
<path d="M8.98633 13.9414V5.54297C8.98633 5.45387 9.02172 5.36843 9.08472 5.30543C9.14772 5.24242 9.23317 5.20703 9.32227 5.20703H7.64258C7.55348 5.20703 7.46803 5.24242 7.40503 5.30543C7.34203 5.36843 7.30664 5.45387 7.30664 5.54297V13.9414C7.30664 14.0305 7.34203 14.1159 7.40503 14.179C7.46803 14.242 7.55348 14.2773 7.64258 14.2773H9.32227C9.23317 14.2773 9.14772 14.242 9.08472 14.179C9.02172 14.1159 8.98633 14.0305 8.98633 13.9414Z" fill="white"/>
<path d="M8.98633 25.6992V17.3008C8.98633 17.2117 9.02172 17.1262 9.08472 17.0632C9.14772 17.0002 9.23317 16.9648 9.32227 16.9648H7.64258C7.55348 16.9648 7.46803 17.0002 7.40503 17.0632C7.34203 17.1262 7.30664 17.2117 7.30664 17.3008V25.6992C7.30664 25.7883 7.34203 25.8738 7.40503 25.9368C7.46803 25.9998 7.55348 26.0352 7.64258 26.0352H9.32227C9.23317 26.0352 9.14772 25.9998 9.08472 25.9368C9.02172 25.8738 8.98633 25.7883 8.98633 25.6992Z" fill="white"/>
<path d="M8.98633 37.457V29.0586C8.98633 28.9695 9.02172 28.8841 9.08472 28.821C9.14772 28.758 9.23317 28.7227 9.32227 28.7227H7.64258C7.55348 28.7227 7.46803 28.758 7.40503 28.821C7.34203 28.8841 7.30664 28.9695 7.30664 29.0586V37.457C7.30664 37.5461 7.34203 37.6316 7.40503 37.6946C7.46803 37.7576 7.55348 37.793 7.64258 37.793H9.32227C9.23317 37.793 9.14772 37.7576 9.08472 37.6946C9.02172 37.6316 8.98633 37.5461 8.98633 37.457Z" fill="white"/>
<path d="M7.64258 38.8008H35.3574C35.7137 38.8004 36.0552 38.6586 36.3071 38.4067C36.559 38.1548 36.7008 37.8133 36.7012 37.457V29.0586C36.7008 28.7023 36.559 28.3608 36.3071 28.1089C36.0552 27.857 35.7137 27.7153 35.3574 27.7148H32.502V27.043H35.3574C35.7137 27.0425 36.0552 26.9008 36.3071 26.6489C36.559 26.397 36.7008 26.0555 36.7012 25.6992V17.3008C36.7008 16.9445 36.559 16.603 36.3071 16.3511C36.0552 16.0992 35.7137 15.9575 35.3574 15.957H32.502V15.2852H35.3574C35.7137 15.2847 36.0552 15.143 36.3071 14.8911C36.559 14.6392 36.7008 14.2977 36.7012 13.9414V5.54297C36.7008 5.18671 36.559 4.84517 36.3071 4.59326C36.0552 4.34135 35.7137 4.19964 35.3574 4.19922H7.64258C7.28632 4.19964 6.94478 4.34135 6.69287 4.59326C6.44096 4.84517 6.29925 5.18671 6.29883 5.54297V13.9414C6.29925 14.2977 6.44096 14.6392 6.69287 14.8911C6.94478 15.143 7.28632 15.2847 7.64258 15.2852H10.498V15.957H7.64258C7.28632 15.9575 6.94478 16.0992 6.69287 16.3511C6.44096 16.603 6.29925 16.9445 6.29883 17.3008V25.6992C6.29925 26.0555 6.44096 26.397 6.69287 26.6489C6.94478 26.9008 7.28632 27.0425 7.64258 27.043H10.498V27.7148H7.64258C7.28632 27.7153 6.94478 27.857 6.69287 28.1089C6.44096 28.3608 6.29925 28.7023 6.29883 29.0586V37.457C6.29925 37.8133 6.44096 38.1548 6.69287 38.4067C6.94478 38.6586 7.28632 38.8004 7.64258 38.8008ZM11.5059 26.707H31.4941V27.9668H11.5059V26.707ZM11.5059 14.9492H31.4941V16.209H11.5059V14.9492ZM7.30664 13.9414V5.54297C7.30664 5.45387 7.34203 5.36843 7.40503 5.30543C7.46803 5.24242 7.55348 5.20703 7.64258 5.20703H35.3574C35.4465 5.20703 35.532 5.24242 35.595 5.30543C35.658 5.36843 35.6934 5.45387 35.6934 5.54297V13.9414C35.6934 14.0305 35.658 14.1159 35.595 14.179C35.532 14.242 35.4465 14.2773 35.3574 14.2773H32.4726C32.4379 14.1792 32.3737 14.0942 32.2887 14.034C32.2037 13.9739 32.1022 13.9415 31.998 13.9414H11.002C10.8978 13.9415 10.7963 13.9739 10.7113 14.034C10.6263 14.0942 10.5621 14.1792 10.5274 14.2773H7.64258C7.55348 14.2773 7.46803 14.242 7.40503 14.179C7.34203 14.1159 7.30664 14.0305 7.30664 13.9414ZM7.30664 25.6992V17.3008C7.30664 17.2117 7.34203 17.1262 7.40503 17.0632C7.46803 17.0002 7.55348 16.9648 7.64258 16.9648H10.566C10.6101 17.0414 10.6737 17.105 10.7502 17.1493C10.8267 17.1935 10.9136 17.2168 11.002 17.2168H31.998C32.0864 17.2168 32.1733 17.1935 32.2498 17.1493C32.3263 17.105 32.3899 17.0414 32.434 16.9648H35.3574C35.4465 16.9648 35.532 17.0002 35.595 17.0632C35.658 17.1262 35.6934 17.2117 35.6934 17.3008V25.6992C35.6934 25.7883 35.658 25.8738 35.595 25.9368C35.532 25.9998 35.4465 26.0352 35.3574 26.0352H32.4726C32.4379 25.937 32.3737 25.852 32.2887 25.7918C32.2037 25.7317 32.1022 25.6993 31.998 25.6992H11.002C10.8978 25.6993 10.7963 25.7317 10.7113 25.7918C10.6263 25.852 10.5621 25.937 10.5274 26.0352H7.64258C7.55348 26.0352 7.46803 25.9998 7.40503 25.9368C7.34203 25.8738 7.30664 25.7883 7.30664 25.6992ZM7.30664 29.0586C7.30664 28.9695 7.34203 28.8841 7.40503 28.8211C7.46803 28.758 7.55348 28.7227 7.64258 28.7227H10.566C10.6101 28.7992 10.6737 28.8629 10.7502 28.9071C10.8267 28.9513 10.9136 28.9746 11.002 28.9746H31.998C32.0864 28.9746 32.1733 28.9513 32.2498 28.9071C32.3263 28.8629 32.3899 28.7992 32.434 28.7227H35.3574C35.4465 28.7227 35.532 28.758 35.595 28.8211C35.658 28.8841 35.6934 28.9695 35.6934 29.0586V37.457C35.6934 37.5461 35.658 37.6316 35.595 37.6946C35.532 37.7576 35.4465 37.793 35.3574 37.793H7.64258C7.55348 37.793 7.46803 37.7576 7.40503 37.6946C7.34203 37.6316 7.30664 37.5461 7.30664 37.457V29.0586Z" fill="white"/>
<path d="M27.3369 35.1895C27.719 35.1895 28.0924 35.0762 28.4101 34.8639C28.7277 34.6517 28.9753 34.35 29.1215 33.997C29.2677 33.6441 29.306 33.2557 29.2314 32.881C29.1569 32.5063 28.9729 32.1621 28.7028 31.8919C28.4326 31.6218 28.0885 31.4378 27.7138 31.3633C27.3391 31.2888 26.9507 31.327 26.5977 31.4732C26.2447 31.6194 25.9431 31.867 25.7308 32.1847C25.5186 32.5023 25.4053 32.8758 25.4053 33.2578C25.4059 33.7699 25.6095 34.2609 25.9717 34.6231C26.3338 34.9852 26.8248 35.1889 27.3369 35.1895ZM27.3369 32.334C27.5196 32.334 27.6982 32.3882 27.8502 32.4897C28.0021 32.5912 28.1205 32.7355 28.1904 32.9043C28.2603 33.0731 28.2786 33.2588 28.243 33.438C28.2073 33.6173 28.1194 33.7819 27.9902 33.9111C27.861 34.0403 27.6963 34.1282 27.5171 34.1639C27.3379 34.1995 27.1522 34.1812 26.9834 34.1113C26.8146 34.0414 26.6703 33.923 26.5688 33.7711C26.4673 33.6191 26.4131 33.4405 26.4131 33.2578C26.4134 33.0129 26.5108 32.7781 26.684 32.6049C26.8572 32.4317 27.092 32.3343 27.3369 32.334Z" fill="white"/>
<path d="M32.208 35.1895C32.5901 35.1895 32.9635 35.0762 33.2812 34.8639C33.5988 34.6517 33.8464 34.35 33.9926 33.997C34.1388 33.6441 34.1771 33.2557 34.1025 32.881C34.028 32.5063 33.844 32.1621 33.5739 31.8919C33.3037 31.6218 32.9596 31.4378 32.5849 31.3633C32.2102 31.2888 31.8218 31.327 31.4688 31.4732C31.1158 31.6194 30.8142 31.867 30.6019 32.1847C30.3897 32.5023 30.2764 32.8758 30.2764 33.2578C30.2769 33.7699 30.4806 34.2609 30.8428 34.6231C31.2049 34.9852 31.6959 35.1889 32.208 35.1895ZM32.208 32.334C32.3907 32.334 32.5693 32.3882 32.7213 32.4897C32.8732 32.5912 32.9916 32.7355 33.0615 32.9043C33.1314 33.0731 33.1497 33.2588 33.1141 33.438C33.0784 33.6173 32.9905 33.7819 32.8613 33.9111C32.7321 34.0403 32.5674 34.1282 32.3882 34.1639C32.209 34.1995 32.0233 34.1812 31.8545 34.1113C31.6857 34.0414 31.5414 33.923 31.4399 33.7711C31.3384 33.6191 31.2842 33.4405 31.2842 33.2578C31.2845 33.0129 31.3819 32.7781 31.5551 32.6049C31.7283 32.4317 31.9631 32.3343 32.208 32.334Z" fill="white"/>
<path d="M9.32227 35.0215C9.45591 35.0215 9.58408 34.9684 9.67858 34.8739C9.77308 34.7794 9.82617 34.6512 9.82617 34.5176V31.998C9.82617 31.8644 9.77308 31.7362 9.67858 31.6417C9.58408 31.5472 9.45591 31.4941 9.32227 31.4941C9.18862 31.4941 9.06045 31.5472 8.96595 31.6417C8.87145 31.7362 8.81836 31.8644 8.81836 31.998V34.5176C8.81836 34.6512 8.87145 34.7794 8.96595 34.8739C9.06045 34.9684 9.18862 35.0215 9.32227 35.0215Z" fill="white"/>
<path d="M11.5898 35.0215C11.7235 35.0215 11.8517 34.9684 11.9462 34.8739C12.0407 34.7794 12.0938 34.6512 12.0938 34.5176V31.998C12.0938 31.8644 12.0407 31.7362 11.9462 31.6417C11.8517 31.5472 11.7235 31.4941 11.5898 31.4941C11.4562 31.4941 11.328 31.5472 11.2335 31.6417C11.139 31.7362 11.0859 31.8644 11.0859 31.998V34.5176C11.0859 34.6512 11.139 34.7794 11.2335 34.8739C11.328 34.9684 11.4562 35.0215 11.5898 35.0215Z" fill="white"/>
<path d="M13.7734 35.0215C13.9071 35.0215 14.0353 34.9684 14.1298 34.8739C14.2243 34.7794 14.2773 34.6512 14.2773 34.5176V31.998C14.2773 31.8644 14.2243 31.7362 14.1298 31.6417C14.0353 31.5472 13.9071 31.4941 13.7734 31.4941C13.6398 31.4941 13.5116 31.5472 13.4171 31.6417C13.3226 31.7362 13.2695 31.8644 13.2695 31.998V34.5176C13.2695 34.6512 13.3226 34.7794 13.4171 34.8739C13.5116 34.9684 13.6398 35.0215 13.7734 35.0215Z" fill="white"/>
<path d="M16.041 35.0215C16.1747 35.0215 16.3028 34.9684 16.3973 34.8739C16.4918 34.7794 16.5449 34.6512 16.5449 34.5176V31.998C16.5449 31.8644 16.4918 31.7362 16.3973 31.6417C16.3028 31.5472 16.1747 31.4941 16.041 31.4941C15.9074 31.4941 15.7792 31.5472 15.6847 31.6417C15.5902 31.7362 15.5371 31.8644 15.5371 31.998V34.5176C15.5371 34.6512 15.5902 34.7794 15.6847 34.8739C15.7792 34.9684 15.9074 35.0215 16.041 35.0215Z" fill="white"/>
<path d="M18.2246 35.0215C18.3583 35.0215 18.4864 34.9684 18.5809 34.8739C18.6754 34.7794 18.7285 34.6512 18.7285 34.5176V31.998C18.7285 31.8644 18.6754 31.7362 18.5809 31.6417C18.4864 31.5472 18.3583 31.4941 18.2246 31.4941C18.091 31.4941 17.9628 31.5472 17.8683 31.6417C17.7738 31.7362 17.7207 31.8644 17.7207 31.998V34.5176C17.7207 34.6512 17.7738 34.7794 17.8683 34.8739C17.9628 34.9684 18.091 35.0215 18.2246 35.0215Z" fill="white"/>
<path d="M27.3369 23.4316C27.719 23.4316 28.0924 23.3184 28.4101 23.1061C28.7277 22.8938 28.9753 22.5922 29.1215 22.2392C29.2677 21.8862 29.306 21.4979 29.2314 21.1232C29.1569 20.7485 28.9729 20.4043 28.7028 20.1341C28.4326 19.864 28.0885 19.68 27.7138 19.6055C27.3391 19.5309 26.9507 19.5692 26.5977 19.7154C26.2447 19.8616 25.9431 20.1092 25.7308 20.4268C25.5186 20.7445 25.4053 21.118 25.4053 21.5C25.4059 22.0121 25.6095 22.5031 25.9717 22.8652C26.3338 23.2274 26.8248 23.4311 27.3369 23.4316ZM27.3369 20.5762C27.5196 20.5762 27.6982 20.6304 27.8502 20.7319C28.0021 20.8334 28.1205 20.9777 28.1904 21.1465C28.2603 21.3153 28.2786 21.501 28.243 21.6802C28.2073 21.8594 28.1194 22.024 27.9902 22.1532C27.861 22.2824 27.6963 22.3704 27.5171 22.4061C27.3379 22.4417 27.1522 22.4234 26.9834 22.3535C26.8146 22.2836 26.6703 22.1652 26.5688 22.0133C26.4673 21.8613 26.4131 21.6827 26.4131 21.5C26.4134 21.2551 26.5108 21.0203 26.684 20.8471C26.8572 20.6739 27.092 20.5765 27.3369 20.5762Z" fill="white"/>
<path d="M32.208 23.4316C32.5901 23.4316 32.9635 23.3184 33.2812 23.1061C33.5988 22.8938 33.8464 22.5922 33.9926 22.2392C34.1388 21.8862 34.1771 21.4979 34.1025 21.1232C34.028 20.7485 33.844 20.4043 33.5739 20.1341C33.3037 19.864 32.9596 19.68 32.5849 19.6055C32.2102 19.5309 31.8218 19.5692 31.4688 19.7154C31.1158 19.8616 30.8142 20.1092 30.6019 20.4268C30.3897 20.7445 30.2764 21.118 30.2764 21.5C30.2769 22.0121 30.4806 22.5031 30.8428 22.8652C31.2049 23.2274 31.6959 23.4311 32.208 23.4316ZM32.208 20.5762C32.3907 20.5762 32.5693 20.6304 32.7213 20.7319C32.8732 20.8334 32.9916 20.9777 33.0615 21.1465C33.1314 21.3153 33.1497 21.501 33.1141 21.6802C33.0784 21.8594 32.9905 22.024 32.8613 22.1532C32.7321 22.2824 32.5674 22.3704 32.3882 22.4061C32.209 22.4417 32.0233 22.4234 31.8545 22.3535C31.6857 22.2836 31.5414 22.1652 31.4399 22.0133C31.3384 21.8613 31.2842 21.6827 31.2842 21.5C31.2845 21.2551 31.3819 21.0203 31.5551 20.8471C31.7283 20.6739 31.9631 20.5765 32.208 20.5762Z" fill="white"/>
<path d="M9.32227 23.2637C9.45591 23.2637 9.58408 23.2106 9.67858 23.1161C9.77308 23.0216 9.82617 22.8934 9.82617 22.7598V20.2402C9.82617 20.1066 9.77308 19.9784 9.67858 19.8839C9.58408 19.7894 9.45591 19.7363 9.32227 19.7363C9.18862 19.7363 9.06045 19.7894 8.96595 19.8839C8.87145 19.9784 8.81836 20.1066 8.81836 20.2402V22.7598C8.81836 22.8934 8.87145 23.0216 8.96595 23.1161C9.06045 23.2106 9.18862 23.2637 9.32227 23.2637Z" fill="white"/>
<path d="M11.5898 23.2637C11.7235 23.2637 11.8517 23.2106 11.9462 23.1161C12.0407 23.0216 12.0938 22.8934 12.0938 22.7598V20.2402C12.0938 20.1066 12.0407 19.9784 11.9462 19.8839C11.8517 19.7894 11.7235 19.7363 11.5898 19.7363C11.4562 19.7363 11.328 19.7894 11.2335 19.8839C11.139 19.9784 11.0859 20.1066 11.0859 20.2402V22.7598C11.0859 22.8934 11.139 23.0216 11.2335 23.1161C11.328 23.2106 11.4562 23.2637 11.5898 23.2637Z" fill="white"/>
<path d="M13.7734 23.2637C13.9071 23.2637 14.0353 23.2106 14.1298 23.1161C14.2243 23.0216 14.2773 22.8934 14.2773 22.7598V20.2402C14.2773 20.1066 14.2243 19.9784 14.1298 19.8839C14.0353 19.7894 13.9071 19.7363 13.7734 19.7363C13.6398 19.7363 13.5116 19.7894 13.4171 19.8839C13.3226 19.9784 13.2695 20.1066 13.2695 20.2402V22.7598C13.2695 22.8934 13.3226 23.0216 13.4171 23.1161C13.5116 23.2106 13.6398 23.2637 13.7734 23.2637Z" fill="white"/>
<path d="M16.041 23.2637C16.1747 23.2637 16.3028 23.2106 16.3973 23.1161C16.4918 23.0216 16.5449 22.8934 16.5449 22.7598V20.2402C16.5449 20.1066 16.4918 19.9784 16.3973 19.8839C16.3028 19.7894 16.1747 19.7363 16.041 19.7363C15.9074 19.7363 15.7792 19.7894 15.6847 19.8839C15.5902 19.9784 15.5371 20.1066 15.5371 20.2402V22.7598C15.5371 22.8934 15.5902 23.0216 15.6847 23.1161C15.7792 23.2106 15.9074 23.2637 16.041 23.2637Z" fill="white"/>
<path d="M18.2246 23.2637C18.3583 23.2637 18.4864 23.2106 18.5809 23.1161C18.6754 23.0216 18.7285 22.8934 18.7285 22.7598V20.2402C18.7285 20.1066 18.6754 19.9784 18.5809 19.8839C18.4864 19.7894 18.3583 19.7363 18.2246 19.7363C18.091 19.7363 17.9628 19.7894 17.8683 19.8839C17.7738 19.9784 17.7207 20.1066 17.7207 20.2402V22.7598C17.7207 22.8934 17.7738 23.0216 17.8683 23.1161C17.9628 23.2106 18.091 23.2637 18.2246 23.2637Z" fill="white"/>
<path d="M27.3369 11.6738C27.719 11.6738 28.0924 11.5605 28.4101 11.3483C28.7277 11.136 28.9753 10.8344 29.1215 10.4814C29.2677 10.1284 29.306 9.74005 29.2314 9.36534C29.1569 8.99064 28.9729 8.64646 28.7028 8.37631C28.4326 8.10617 28.0885 7.9222 27.7138 7.84766C27.3391 7.77313 26.9507 7.81138 26.5977 7.95759C26.2447 8.10379 25.9431 8.35137 25.7308 8.66903C25.5186 8.98668 25.4053 9.36015 25.4053 9.74219C25.4059 10.2543 25.6095 10.7453 25.9717 11.1074C26.3338 11.4696 26.8248 11.6733 27.3369 11.6738ZM27.3369 8.81836C27.5196 8.81836 27.6982 8.87254 27.8502 8.97405C28.0021 9.07557 28.1205 9.21985 28.1904 9.38865C28.2603 9.55746 28.2786 9.74321 28.243 9.92242C28.2073 10.1016 28.1194 10.2662 27.9902 10.3954C27.861 10.5246 27.6963 10.6126 27.5171 10.6483C27.3379 10.6839 27.1522 10.6656 26.9834 10.5957C26.8146 10.5258 26.6703 10.4074 26.5688 10.2554C26.4673 10.1035 26.4131 9.9249 26.4131 9.74219C26.4134 9.49726 26.5108 9.26245 26.684 9.08926C26.8572 8.91607 27.092 8.81865 27.3369 8.81836Z" fill="white"/>
<path d="M32.208 11.6738C32.5901 11.6738 32.9635 11.5605 33.2812 11.3483C33.5988 11.136 33.8464 10.8344 33.9926 10.4814C34.1388 10.1284 34.1771 9.74005 34.1025 9.36534C34.028 8.99064 33.844 8.64646 33.5739 8.37631C33.3037 8.10617 32.9596 7.9222 32.5849 7.84766C32.2102 7.77313 31.8218 7.81138 31.4688 7.95759C31.1158 8.10379 30.8142 8.35137 30.6019 8.66903C30.3897 8.98668 30.2764 9.36015 30.2764 9.74219C30.2769 10.2543 30.4806 10.7453 30.8428 11.1074C31.2049 11.4696 31.6959 11.6733 32.208 11.6738ZM32.208 8.81836C32.3907 8.81836 32.5693 8.87254 32.7213 8.97405C32.8732 9.07557 32.9916 9.21985 33.0615 9.38865C33.1314 9.55746 33.1497 9.74321 33.1141 9.92242C33.0784 10.1016 32.9905 10.2662 32.8613 10.3954C32.7321 10.5246 32.5674 10.6126 32.3882 10.6483C32.209 10.6839 32.0233 10.6656 31.8545 10.5957C31.6857 10.5258 31.5414 10.4074 31.4399 10.2554C31.3384 10.1035 31.2842 9.9249 31.2842 9.74219C31.2845 9.49726 31.3819 9.26245 31.5551 9.08926C31.7283 8.91607 31.9631 8.81865 32.208 8.81836Z" fill="white"/>
<path d="M9.32227 11.5059C9.45591 11.5059 9.58408 11.4528 9.67858 11.3583C9.77308 11.2638 9.82617 11.1356 9.82617 11.002V8.48242C9.82617 8.34878 9.77308 8.22061 9.67858 8.12611C9.58408 8.03161 9.45591 7.97852 9.32227 7.97852C9.18862 7.97852 9.06045 8.03161 8.96595 8.12611C8.87145 8.22061 8.81836 8.34878 8.81836 8.48242V11.002C8.81836 11.1356 8.87145 11.2638 8.96595 11.3583C9.06045 11.4528 9.18862 11.5059 9.32227 11.5059Z" fill="white"/>
<path d="M11.5898 11.5059C11.7235 11.5059 11.8517 11.4528 11.9462 11.3583C12.0407 11.2638 12.0938 11.1356 12.0938 11.002V8.48242C12.0938 8.34878 12.0407 8.22061 11.9462 8.12611C11.8517 8.03161 11.7235 7.97852 11.5898 7.97852C11.4562 7.97852 11.328 8.03161 11.2335 8.12611C11.139 8.22061 11.0859 8.34878 11.0859 8.48242V11.002C11.0859 11.1356 11.139 11.2638 11.2335 11.3583C11.328 11.4528 11.4562 11.5059 11.5898 11.5059Z" fill="white"/>
<path d="M13.7734 11.5059C13.9071 11.5059 14.0353 11.4528 14.1298 11.3583C14.2243 11.2638 14.2773 11.1356 14.2773 11.002V8.48242C14.2773 8.34878 14.2243 8.22061 14.1298 8.12611C14.0353 8.03161 13.9071 7.97852 13.7734 7.97852C13.6398 7.97852 13.5116 8.03161 13.4171 8.12611C13.3226 8.22061 13.2695 8.34878 13.2695 8.48242V11.002C13.2695 11.1356 13.3226 11.2638 13.4171 11.3583C13.5116 11.4528 13.6398 11.5059 13.7734 11.5059Z" fill="white"/>
<path d="M16.041 11.5059C16.1747 11.5059 16.3028 11.4528 16.3973 11.3583C16.4918 11.2638 16.5449 11.1356 16.5449 11.002V8.48242C16.5449 8.34878 16.4918 8.22061 16.3973 8.12611C16.3028 8.03161 16.1747 7.97852 16.041 7.97852C15.9074 7.97852 15.7792 8.03161 15.6847 8.12611C15.5902 8.22061 15.5371 8.34878 15.5371 8.48242V11.002C15.5371 11.1356 15.5902 11.2638 15.6847 11.3583C15.7792 11.4528 15.9074 11.5059 16.041 11.5059Z" fill="white"/>
<path d="M18.2246 11.5059C18.3583 11.5059 18.4864 11.4528 18.5809 11.3583C18.6754 11.2638 18.7285 11.1356 18.7285 11.002V8.48242C18.7285 8.34878 18.6754 8.22061 18.5809 8.12611C18.4864 8.03161 18.3583 7.97852 18.2246 7.97852C18.091 7.97852 17.9628 8.03161 17.8683 8.12611C17.7738 8.22061 17.7207 8.34878 17.7207 8.48242V11.002C17.7207 11.1356 17.7738 11.2638 17.8683 11.3583C17.9628 11.4528 18.091 11.5059 18.2246 11.5059Z" fill="white"/>
</svg>
